<?xml version="1.0" encoding="utf-8"?>
<!-- Generator: Adobe Illustrator 30.2.1, SVG Export Plug-In . SVG Version: 9.03 Build 0)  -->
<svg version="1.0" id="Layer_1" xmlns="http://www.w3.org/2000/svg" xmlns:xlink="http://www.w3.org/1999/xlink" x="0px" y="0px"
	 viewBox="0 0 86.7 15.3" style="enable-background:new 0 0 86.7 15.3;" xml:space="preserve">
<style type="text/css">
	.st0{fill:#2A2A2A;}
</style>
<path class="st0" d="M7.5,8.7L5.1,3C5,2.8,5,2.6,5,2.4C5,2,5.1,1.8,5.6,1.6V1.4H0v0.2c0.9,0.2,1.4,0.7,2.2,2.5l3.6,8.4l3.3-6.9
	l2.8,6.9l3.7-8.4c0.8-1.6,1.3-2.3,2.1-2.6V1.4H14v0.2c0.9,0.2,1.2,0.7,1.2,1.8c0,1.1-0.4,2.5-1.2,4.2l-0.4,0.8l-1.9-4.7
	c-0.2-0.5-0.3-1-0.3-1.2c0-0.5,0.3-0.8,0.8-0.9V1.4H6.6v0.2C7.3,1.7,7.6,2,8.1,3.2L9,5.4L7.5,8.7z"/>
<path class="st0" d="M24.4,7.3c-0.1-0.9-0.3-1.3-0.7-1.9c-0.7-1-1.8-1.5-3-1.5c-2.3,0-4.1,1.9-4.1,4.3c0,2.3,1.7,4.1,4,4.1
	c1.2,0,2.2-0.5,2.9-1.4c0.4-0.5,0.7-1,1-1.9l-0.1-0.1c-0.6,1-1.3,1.4-2.4,1.4c-1.7,0-2.5-1-2.5-3L24.4,7.3z M19.4,7.1
	c0-1.9,0.5-3,1.3-3c0.5,0,0.8,0.3,0.9,1.1c0.1,0.4,0.1,0.9,0.1,1.9L19.4,7.1z"/>
<path class="st0" d="M34,10.9c-0.3,0.2-0.4,0.2-0.6,0.2c-0.3,0-0.5-0.1-0.6-0.3c-0.1-0.2-0.1-0.4-0.1-1V6.1c0-0.9-0.2-1.4-0.6-1.7
	c-0.4-0.3-0.8-0.4-1.4-0.4c-1.3,0-3.1,0.5-4.3,1.2c-0.9,0.5-1.3,1.1-1.3,1.7c0,0.7,0.4,1.1,1.1,1.1c0.9,0,1.5-0.6,1.6-1.6
	c0.1-1,0.1-1.1,0.3-1.4c0.2-0.4,0.6-0.6,1-0.6c0.3,0,0.5,0.1,0.7,0.4C30,5,30,5.4,30,6.5v0.8c-1.1,0.3-2,0.7-2.8,1
	c-1.6,0.7-2.1,1.3-2.1,2.2c0,1,0.9,1.7,2.2,1.7c1.2,0,2-0.4,2.7-1.5c0.2,1,0.7,1.5,1.5,1.5c0.8,0,1.5-0.4,2.5-1.3L34,10.9z M30,10
	c0,0.7-0.4,1.2-0.9,1.2c-0.6,0-0.9-0.5-0.9-1.5c0-1.2,0.4-1.7,1.8-2.2L30,10z"/>
<path class="st0" d="M34,1.4c0.5,0,0.8,0.1,1,0.5c0.2,0.3,0.3,0.7,0.3,1.7V10c0,1.6-0.1,1.8-1.1,1.9V12h4.9v-0.2
	c-1,0-1.1-0.3-1.1-1.9V0.1c-0.9,0.3-2.6,0.8-4,1.1L34,1.4z"/>
<path class="st0" d="M43.1,4.1V0.9c-1,1.6-2.8,3.2-4.6,4h1.9v4.7c0,1.1,0.2,1.7,0.7,2.1c0.4,0.3,0.9,0.5,1.5,0.5
	c0.8,0,1.6-0.3,2.7-1.2l-0.1-0.1c-0.4,0.1-0.6,0.2-0.9,0.2c-0.9,0-1.3-0.5-1.3-1.7V4.8h1.5L45,4.1L43.1,4.1z"/>
<path class="st0" d="M76.9,4.1V0.9c-1,1.6-2.8,3.2-4.6,4h1.9v4.7c0,1.1,0.2,1.7,0.7,2.1c0.4,0.3,0.9,0.5,1.5,0.5
	c0.8,0,1.6-0.3,2.7-1.2l-0.1-0.1c-0.4,0.1-0.6,0.2-0.9,0.2c-0.9,0-1.3-0.5-1.3-1.7V4.8h1.5l0.4-0.7L76.9,4.1z"/>
<path class="st0" d="M48.9,0.1c-1.1,0.4-2.6,0.8-4,1.1l0,0.2c0.5,0,0.8,0.1,1,0.5c0.2,0.3,0.3,0.7,0.3,1.7V10c0,1.6-0.1,1.8-1.2,1.9
	V12h4.6v-0.2c-0.3,0-0.5-0.1-0.6-0.4c-0.1-0.2-0.1-0.4-0.1-1.2V5.7c0.5-0.4,0.8-0.6,1.2-0.6c0.3,0,0.5,0.1,0.7,0.3
	c0.2,0.2,0.2,0.5,0.2,1v3.8c0,1.3-0.1,1.5-0.7,1.6V12h4.3v-0.2c-0.8-0.1-0.9-0.3-0.9-1.6V6.1c0-0.9-0.1-1.3-0.4-1.7
	c-0.3-0.3-0.7-0.5-1.3-0.5c-0.9,0-1.7,0.4-3,1.6L48.9,0.1z"/>
<path class="st0" d="M86.7,7.3C86.6,6.4,86.4,6,86,5.4c-0.7-1-1.8-1.5-3-1.5c-2.3,0-4.1,1.9-4.1,4.3c0,2.3,1.7,4.1,4,4.1
	c1.2,0,2.2-0.5,2.9-1.4c0.4-0.5,0.7-1,1-1.9l-0.1-0.1c-0.6,1-1.3,1.4-2.4,1.4c-1.7,0-2.5-1-2.5-3L86.7,7.3z M81.7,7.1
	c0-1.9,0.5-3,1.3-3c0.5,0,0.8,0.3,0.9,1.1C84,5.6,84,6.1,84,7.1L81.7,7.1z"/>
<path class="st0" d="M59.6,3.9h-0.2V3.7c0-0.7,0.2-1,0.5-1c0.2,0,0.3,0.1,0.6,0.4c0.3,0.3,0.6,0.5,0.9,0.5c0.6,0,1.1-0.5,1.1-1.2
	c0-0.7-0.6-1.3-1.4-1.3c-1.1,0-1.9,1-1.9,2.5v0.3c-0.9,0-1.4,0.2-1.9,0.4c-1,0.5-1.5,1.1-1.5,1.9c0,0.8,0.5,1.5,1.5,1.8
	c-1.2,0.7-1.8,1.4-1.8,2.2c0,0.8,0.6,1.4,1.7,1.6c-1,0.4-1.6,0.9-1.6,1.5c0,1,1.3,1.6,3.4,1.6c2.7,0,4.8-1.4,4.8-3.1
	c0-1.3-1.2-2.3-2.8-2.3c-0.3,0-0.6,0-1,0c-0.5,0-0.8,0-1,0c-1.3,0-1.8-0.2-1.8-0.9c0-0.2,0.1-0.4,0.3-0.6c0.7,0.2,1.2,0.3,1.8,0.3
	c1.9,0,3.5-1,3.5-2.3c0-0.6-0.3-1.1-0.9-1.5c-0.6-0.4-1.4-0.6-2-0.7L59.6,3.9z M59.3,4.1c0.7,0,1,0.7,1,2.2c0,1.3-0.3,1.9-0.9,1.9
	c-0.7,0-1-0.7-1-2.2C58.4,4.7,58.6,4.1,59.3,4.1z M57.6,11.9c0.5,0.1,0.8,0.1,1.2,0.1c0.2,0,0.5,0,0.8,0c0.3,0,0.7,0,0.8,0
	c1.1,0,1.7,0.4,1.7,1.2c0,0.9-0.9,1.5-2.3,1.5c-1.6,0-2.7-0.7-2.7-1.8C57.1,12.4,57.3,12.1,57.6,11.9z"/>
<path class="st0" d="M73.1,10.9c-0.3,0.2-0.4,0.2-0.6,0.2c-0.3,0-0.5-0.1-0.6-0.3c-0.1-0.2-0.1-0.4-0.1-1V6.1c0-0.9-0.2-1.4-0.6-1.7
	c-0.4-0.3-0.8-0.4-1.4-0.4c-1.3,0-3.1,0.5-4.3,1.2c-0.9,0.5-1.3,1.1-1.3,1.7c0,0.7,0.4,1.1,1.1,1.1c0.9,0,1.5-0.6,1.6-1.6
	s0.1-1.1,0.3-1.4c0.2-0.4,0.6-0.6,1-0.6c0.3,0,0.5,0.1,0.7,0.4c0.1,0.3,0.2,0.7,0.2,1.8v0.8c-1.1,0.3-2,0.7-2.8,1
	c-1.6,0.7-2.1,1.3-2.1,2.2c0,1,0.9,1.7,2.2,1.7c1.2,0,2-0.4,2.7-1.5c0.2,1,0.7,1.5,1.5,1.5c0.8,0,1.5-0.4,2.5-1.3L73.1,10.9z
	 M69.1,10c0,0.7-0.4,1.2-0.9,1.2c-0.6,0-0.9-0.5-0.9-1.5c0-1.2,0.4-1.7,1.8-2.2V10z"/>
</svg>
